<svg width="169" height="168" viewBox="0 0 169 168" fill="none" xmlns="http://www.w3.org/2000/svg">
<g filter="url(#filter0_f_1_13785)">
<circle cx="84.5" cy="84" r="39.75" stroke="#19525A" stroke-width="0.5"/>
<circle cx="84.5" cy="84" r="59.75" stroke="#239FA9" stroke-width="0.5"/>
<circle cx="84.5" cy="84" r="79.75" stroke="#A2EDED" stroke-width="0.5"/>
<path d="M84.5 108C97.7548 108 108.5 97.2548 108.5 84C108.5 70.7452 97.7548 60 84.5 60C71.2452 60 60.5 70.7452 60.5 84C60.5 97.2548 71.2452 108 84.5 108Z" fill="#19525A"/>
<path d="M78.5 82.0791V85.9201C78.5 89.5664 78.5 91.3895 79.5938 92.1265C80.6876 92.8633 82.1835 92.048 85.1756 90.4175L88.6993 88.4967C92.2998 86.5345 94.1 85.5534 94.1 83.9996C94.1 82.4459 92.2998 81.4647 88.6993 79.5025L85.1756 77.5819C82.1835 75.9512 80.6876 75.1359 79.5938 75.8728C78.5 76.6097 78.5 78.4328 78.5 82.0791Z" fill="white"/>
</g>
<circle cx="84.5" cy="84" r="39.75" stroke="#19525A" stroke-width="0.5"/>
<circle cx="84.5" cy="84" r="59.75" stroke="#239FA9" stroke-width="0.5"/>
<circle cx="84.5" cy="84" r="79.75" stroke="#A2EDED" stroke-width="0.5"/>
<path d="M84.5 108C97.7548 108 108.5 97.2548 108.5 84C108.5 70.7452 97.7548 60 84.5 60C71.2452 60 60.5 70.7452 60.5 84C60.5 97.2548 71.2452 108 84.5 108Z" fill="#19525A"/>
<path d="M78.5 82.0791V85.9201C78.5 89.5664 78.5 91.3895 79.5938 92.1265C80.6876 92.8633 82.1835 92.048 85.1756 90.4175L88.6993 88.4967C92.2998 86.5345 94.1 85.5534 94.1 83.9996C94.1 82.4459 92.2998 81.4647 88.6993 79.5025L85.1756 77.5819C82.1835 75.9512 80.6876 75.1359 79.5938 75.8728C78.5 76.6097 78.5 78.4328 78.5 82.0791Z" fill="white"/>
<defs>
<filter id="filter0_f_1_13785" x="0.5" y="0" width="168" height="168" filterUnits="userSpaceOnUse" color-interpolation-filters="sRGB">
<feFlood flood-opacity="0" result="BackgroundImageFix"/>
<feBlend mode="normal" in="SourceGraphic" in2="BackgroundImageFix" result="shape"/>
<feGaussianBlur stdDeviation="2" result="effect1_foregroundBlur_1_13785"/>
</filter>
</defs>
</svg>
